<svg width="40" height="40" viewBox="0 0 40 40" fill="none" xmlns="http://www.w3.org/2000/svg">
<g clip-path="url(#clip0_2_31)">
<path d="M28.52 23.21L26.72 21.4V16.94C26.744 15.2838 26.1679 13.6749 25.0981 12.4103C24.0284 11.1457 22.5372 10.3109 20.9 10.06C19.9498 9.93485 18.9839 10.0138 18.0666 10.2916C17.1494 10.5693 16.3019 11.0395 15.5807 11.6707C14.8596 12.302 14.2814 13.0798 13.8846 13.9522C13.4879 14.8246 13.2818 15.7716 13.28 16.73V21.4L11.48 23.21C11.2539 23.4399 11.1006 23.7313 11.0392 24.0478C10.9778 24.3643 11.0111 24.6919 11.1349 24.9896C11.2587 25.2873 11.4675 25.542 11.7352 25.7217C12.0029 25.9014 12.3176 25.9982 12.64 26H16V26.34C16.0467 27.3552 16.494 28.3105 17.2437 28.9965C17.9935 29.6826 18.9847 30.0434 20 30C21.0154 30.0434 22.0065 29.6826 22.7563 28.9965C23.5061 28.3105 23.9533 27.3552 24 26.34V26H27.36C27.6824 25.9982 27.9972 25.9014 28.2649 25.7217C28.5326 25.542 28.7414 25.2873 28.8651 24.9896C28.9889 24.6919 29.0222 24.3643 28.9608 24.0478C28.8994 23.7313 28.7461 23.4399 28.52 23.21ZM22 26.34C21.9446 26.821 21.7057 27.262 21.3331 27.5713C20.9605 27.8805 20.483 28.0341 20 28C19.517 28.0341 19.0395 27.8805 18.6669 27.5713C18.2944 27.262 18.0555 26.821 18 26.34V26H22V26.34ZM13.51 24L14.69 22.82C14.8772 22.6339 15.0257 22.4127 15.1269 22.169C15.2282 21.9252 15.2802 21.6639 15.28 21.4V16.73C15.2806 16.0554 15.4254 15.3887 15.7048 14.7747C15.9842 14.1607 16.3917 13.6135 16.9 13.17C17.4014 12.7157 17.9956 12.3757 18.6414 12.1737C19.2871 11.9717 19.9691 11.9124 20.64 12C21.7965 12.1878 22.8462 12.787 23.5959 13.6874C24.3456 14.5877 24.7448 15.7286 24.72 16.9V21.4C24.7185 21.6632 24.7689 21.9241 24.8685 22.1678C24.968 22.4115 25.1146 22.6331 25.3 22.82L26.49 24H13.51Z" fill="#2B2B2B"/>
</g>
<defs>
<clipPath id="clip0_2_31">
<rect width="24" height="24" fill="white" transform="translate(8 8)"/>
</clipPath>
</defs>
</svg>
