<svg width="40" height="40" viewBox="0 0 40 40" fill="none" xmlns="http://www.w3.org/2000/svg">
<g clip-path="url(#clip0_2_32)">
<path d="M20 19C20.7911 19 21.5645 18.7654 22.2223 18.3259C22.8801 17.8864 23.3928 17.2616 23.6955 16.5307C23.9983 15.7998 24.0775 14.9956 23.9231 14.2196C23.7688 13.4437 23.3878 12.731 22.8284 12.1716C22.269 11.6122 21.5563 11.2312 20.7804 11.0769C20.0044 10.9225 19.2002 11.0017 18.4693 11.3045C17.7384 11.6072 17.1136 12.1199 16.6741 12.7777C16.2346 13.4355 16 14.2089 16 15C16 16.0609 16.4214 17.0783 17.1716 17.8284C17.9217 18.5786 18.9391 19 20 19ZM20 13C20.3956 13 20.7822 13.1173 21.1111 13.3371C21.44 13.5568 21.6964 13.8692 21.8478 14.2346C21.9991 14.6001 22.0387 15.0022 21.9616 15.3902C21.8844 15.7781 21.6939 16.1345 21.4142 16.4142C21.1345 16.6939 20.7781 16.8844 20.3902 16.9616C20.0022 17.0387 19.6001 16.9991 19.2346 16.8478C18.8692 16.6964 18.5568 16.44 18.3371 16.1111C18.1173 15.7822 18 15.3956 18 15C18 14.4696 18.2107 13.9609 18.5858 13.5858C18.9609 13.2107 19.4696 13 20 13Z" fill="#2A2A2A"/>
<path d="M20 21C18.1435 21 16.363 21.7375 15.0503 23.0503C13.7375 24.363 13 26.1435 13 28C13 28.2652 13.1054 28.5196 13.2929 28.7071C13.4804 28.8946 13.7348 29 14 29C14.2652 29 14.5196 28.8946 14.7071 28.7071C14.8946 28.5196 15 28.2652 15 28C15 26.6739 15.5268 25.4021 16.4645 24.4645C17.4021 23.5268 18.6739 23 20 23C21.3261 23 22.5979 23.5268 23.5355 24.4645C24.4732 25.4021 25 26.6739 25 28C25 28.2652 25.1054 28.5196 25.2929 28.7071C25.4804 28.8946 25.7348 29 26 29C26.2652 29 26.5196 28.8946 26.7071 28.7071C26.8946 28.5196 27 28.2652 27 28C27 26.1435 26.2625 24.363 24.9497 23.0503C23.637 21.7375 21.8565 21 20 21Z" fill="#2A2A2A"/>
</g>
<defs>
<clipPath id="clip0_2_32">
<rect width="24" height="24" fill="white" transform="translate(8 8)"/>
</clipPath>
</defs>
</svg>
